<svg width="120" height="120" viewBox="0 0 120 120" fill="none" xmlns="http://www.w3.org/2000/svg">
<g clip-path="url(#clip0_268485_3374)">
<path d="M120 60C120 26.8629 93.1371 0 60 0C26.8629 0 0 26.8629 0 60C0 93.1371 26.8629 120 60 120C93.1371 120 120 93.1371 120 60Z" fill="#FFBAF8"/>
<path d="M33.75 78.75C38.9277 78.75 43.125 74.5527 43.125 69.375C43.125 64.1973 38.9277 60 33.75 60C28.5723 60 24.375 64.1973 24.375 69.375C24.375 74.5527 28.5723 78.75 33.75 78.75Z" fill="#EAC0B3"/>
<path d="M33.75 76.875H65.625V123.506C65.625 123.506 58.7944 127.5 49.6875 127.5C40.5806 127.5 33.75 120.981 33.75 120.981V76.875Z" fill="#EAC0B3"/>
<path d="M65.625 101.002C65.625 111.604 63.9713 110.599 53.2181 110.599C42.465 110.599 37.5038 102.006 37.5038 91.4044C37.5038 80.8031 37.095 71.25 45.7725 71.25C70.3125 72.1875 65.625 90.4012 65.625 101.002Z" fill="#C99688"/>
<path d="M86.0363 67.6875C86.0363 84.4162 92.9475 104.987 62.8125 104.987C32.6776 104.987 32.6775 84.4162 32.6775 67.6875C28.125 47.8125 29.0626 24.375 60 24.375C90.9375 24.375 86.0363 50.9569 86.0363 67.6875Z" fill="#F5D0C5"/>
<path d="M71.25 76.875H69.375C68.3395 76.875 67.5 77.7145 67.5 78.75C67.5 79.7855 68.3395 80.625 69.375 80.625H71.25C72.2855 80.625 73.125 79.7855 73.125 78.75C73.125 77.7145 72.2855 76.875 71.25 76.875Z" fill="#EAC0B3"/>
<path d="M71.25 112.5H30C20.6802 112.5 13.125 120.055 13.125 129.375V138.75C13.125 148.07 20.6802 155.625 30 155.625H71.25C80.5698 155.625 88.125 148.07 88.125 138.75V129.375C88.125 120.055 80.5698 112.5 71.25 112.5Z" fill="#E05A33"/>
<path fill-rule="evenodd" clip-rule="evenodd" d="M44.9999 46.875C44.9999 47.8688 44.8068 48.8194 44.4561 49.6875C44.9168 50.8263 45.0907 52.0608 44.9625 53.2825C44.8344 54.5042 44.4081 55.6758 43.7211 56.6941C43.0342 57.7125 42.1076 58.5466 41.0228 59.123C39.9381 59.6995 38.7283 60.0006 37.4999 60C37.4999 61.9892 36.7097 63.8968 35.3032 65.3033C33.8967 66.7099 31.989 67.5 29.9999 67.5C28.0108 67.5 26.1031 66.7099 24.6966 65.3033C23.2901 63.8968 22.4999 61.9892 22.4999 60C22.4999 58.0388 22.6218 54.7838 23.1899 51.8982C22.5815 50.5838 22.3667 49.1213 22.5714 47.6875C22.7762 46.2536 23.3917 44.9097 24.3437 43.8181C25.2957 42.7266 26.5434 41.934 27.9361 41.5362C29.3287 41.1383 30.8068 41.1523 32.1918 41.5763C33.2401 40.526 34.5765 39.8103 36.0318 39.5199C37.487 39.2294 38.9957 39.3771 40.367 39.9444C41.7382 40.5117 42.9104 41.473 43.7351 42.7067C44.5598 43.9404 44.9999 45.3911 44.9999 46.875ZM85.9668 63.5494C87.0181 63.2995 88.0031 62.8255 88.8543 62.1597C89.7055 61.494 90.4029 60.6523 90.8987 59.6921C91.3946 58.7319 91.6772 57.676 91.7272 56.5965C91.7772 55.517 91.5935 54.4395 91.1886 53.4375C91.6151 52.3836 91.7964 51.2465 91.7187 50.1123C91.6411 48.978 91.3066 47.8762 90.7406 46.8902C90.1745 45.9042 89.3917 45.0598 88.4513 44.4208C87.5109 43.7819 86.4375 43.365 85.3124 43.2019C86.4243 49.0894 86.2161 55.5975 86.0286 61.5282L85.9668 63.5494Z" fill="#1B0B47"/>
<path d="M54.2419 86.25C54.2419 85.7527 54.4395 85.2758 54.7911 84.9242C55.1427 84.5725 55.6197 84.375 56.1169 84.375H73.2601C73.7573 84.375 74.2343 84.5725 74.5859 84.9242C74.9375 85.2758 75.1351 85.7527 75.1351 86.25C75.1351 88.7364 74.1473 91.121 72.3892 92.8791C70.631 94.6373 68.2465 95.625 65.7601 95.625H63.6169C61.1305 95.625 58.746 94.6373 56.9878 92.8791C55.2297 91.121 54.2419 88.7364 54.2419 86.25Z" fill="#66253C"/>
<path fill-rule="evenodd" clip-rule="evenodd" d="M68.9155 95.0812C67.9027 95.4424 66.8352 95.6263 65.7599 95.6249H63.6168C61.1953 95.6249 58.8677 94.688 57.1216 93.0103C55.3754 91.3327 54.3461 89.0445 54.2493 86.6249C55.6818 86.0887 57.808 86.1505 59.9061 86.2124C60.5736 86.2312 61.2374 86.2499 61.8749 86.2499C66.0186 86.2499 69.3749 89.188 69.3749 92.8124C69.3749 93.6093 69.2118 94.3743 68.9155 95.0812Z" fill="#B03E67"/>
<path d="M56.25 84.375H75V86.25C75 86.7473 74.8025 87.2242 74.4508 87.5758C74.0992 87.9275 73.6223 88.125 73.125 88.125H58.125C57.6277 88.125 57.1508 87.9275 56.7992 87.5758C56.4475 87.2242 56.25 86.7473 56.25 86.25V84.375Z" fill="white"/>
<path d="M60 84.9375C60 84.7883 60.0593 84.6452 60.1648 84.5398C60.2702 84.4343 60.4133 84.375 60.5625 84.375H63.1875C63.3367 84.375 63.4798 84.4343 63.5852 84.5398C63.6907 84.6452 63.75 84.7883 63.75 84.9375V89.4375C63.75 89.5867 63.6907 89.7298 63.5852 89.8352C63.4798 89.9407 63.3367 90 63.1875 90H60.5625C60.4133 90 60.2702 89.9407 60.1648 89.8352C60.0593 89.7298 60 89.5867 60 89.4375V84.9375Z" fill="#B03E67"/>
<path d="M61.875 70.3125C61.875 68.7592 60.6158 67.5 59.0625 67.5C57.5092 67.5 56.25 68.7592 56.25 70.3125V72.1875C56.25 73.7408 57.5092 75 59.0625 75C60.6158 75 61.875 73.7408 61.875 72.1875V70.3125Z" fill="#1B0B47"/>
<path d="M80.625 70.3125C80.625 68.7592 79.3658 67.5 77.8125 67.5C76.2592 67.5 75 68.7592 75 70.3125V72.1875C75 73.7408 76.2592 75 77.8125 75C79.3658 75 80.625 73.7408 80.625 72.1875V70.3125Z" fill="#1B0B47"/>
<path fill-rule="evenodd" clip-rule="evenodd" d="M70.3125 80.625C58.125 83.4375 49.6875 84.375 49.6875 84.375C49.6875 84.375 51.5625 89.0625 56.25 88.125C60 87.375 67.5 85.6256 70.3125 84.375V80.625ZM71.25 80.625C82.5 82.5 90 83.9175 90 83.9175C90 83.9175 87.9019 88.0106 83.4375 87.1875L82.8375 87.0769C79.23 86.415 73.7812 85.4119 71.25 84.375V80.625Z" fill="#1B0B47"/>
</g>
<defs>
<clipPath id="clip0_268485_3374">
<rect width="120" height="120" rx="60" fill="white"/>
</clipPath>
</defs>
</svg>
