<svg width="120" height="120" viewBox="0 0 120 120" fill="none" xmlns="http://www.w3.org/2000/svg">
<g clip-path="url(#clip0_268485_3330)">
<path d="M120 60C120 26.8629 93.1371 0 60 0C26.8629 0 0 26.8629 0 60C0 93.1371 26.8629 120 60 120C93.1371 120 120 93.1371 120 60Z" fill="#4C6FFF"/>
<path d="M33.75 78.75C38.9277 78.75 43.125 74.5527 43.125 69.375C43.125 64.1973 38.9277 60 33.75 60C28.5723 60 24.375 64.1973 24.375 69.375C24.375 74.5527 28.5723 78.75 33.75 78.75Z" fill="#68463C"/>
<path d="M33.75 76.875H65.625V123.506C65.625 123.506 58.7944 127.5 49.6875 127.5C40.5806 127.5 33.75 120.981 33.75 120.981V76.875Z" fill="#68463C"/>
<path d="M65.2706 99.585C65.2706 109.682 63.6393 108.726 53.0212 108.726C42.4031 108.726 37.5037 100.541 37.5037 90.4444C37.5037 80.3494 37.1006 71.25 45.6693 71.25C69.9 72.1425 65.2706 89.4881 65.2706 99.585Z" fill="#553329"/>
<path d="M86.0363 67.6875C86.0363 84.4162 83.4375 104.987 62.8125 104.987C42.1876 104.987 32.6775 84.4162 32.6775 67.6875C28.125 47.8125 29.0626 24.375 60 24.375C90.9375 24.375 86.0363 50.9569 86.0363 67.6875Z" fill="#836055"/>
<path d="M71.25 76.875H69.375C68.3395 76.875 67.5 77.7145 67.5 78.75C67.5 79.7855 68.3395 80.625 69.375 80.625H71.25C72.2855 80.625 73.125 79.7855 73.125 78.75C73.125 77.7145 72.2855 76.875 71.25 76.875Z" fill="#68463C"/>
<path d="M71.25 112.5H30C20.6802 112.5 13.125 120.055 13.125 129.375V138.75C13.125 148.07 20.6802 155.625 30 155.625H71.25C80.5698 155.625 88.125 148.07 88.125 138.75V129.375C88.125 120.055 80.5698 112.5 71.25 112.5Z" fill="#FF4DD8"/>
<path fill-rule="evenodd" clip-rule="evenodd" d="M52.7213 51.495C67.3388 53.6362 92.9963 57.3937 95.625 33.75C97.5 16.875 72.1875 -2.8125 45 15C27.9188 17.5312 23.6456 30.5212 22.6725 41.7262C21.3555 43.1168 20.6226 44.9598 20.625 46.875C20.625 47.8687 20.8181 48.8194 21.1688 49.6875C20.8181 50.5556 20.625 51.5062 20.625 52.5C20.625 54.5737 21.4669 56.4506 22.8263 57.8062C22.5117 58.8375 22.4232 59.9245 22.5668 60.993C22.7104 62.0616 23.0827 63.0866 23.6583 63.9983C24.2339 64.91 24.9993 65.6868 25.9023 66.2759C26.8053 66.8649 27.8248 67.2524 28.8911 67.4118C29.9574 67.5712 31.0455 67.4988 32.0814 67.1996C33.1172 66.9004 34.0763 66.3814 34.8934 65.678C35.7105 64.9745 36.3662 64.1032 36.8161 63.1233C37.2659 62.1435 37.4992 61.0782 37.5 60C38.6444 60.0001 39.7736 59.7384 40.8013 59.2348C41.8289 58.7312 42.7277 57.9992 43.4287 57.0947C44.1298 56.1902 44.6146 55.1373 44.846 54.0165C45.0774 52.8958 45.0493 51.7369 44.7638 50.6287C44.8425 50.625 44.9213 50.625 45 50.625C46.785 50.625 49.4813 51.0187 52.7213 51.495Z" fill="#1B0B47"/>
<path d="M54.2419 86.25C54.2419 85.7527 54.4395 85.2758 54.7911 84.9242C55.1427 84.5725 55.6197 84.375 56.1169 84.375H73.2601C73.7573 84.375 74.2343 84.5725 74.5859 84.9242C74.9375 85.2758 75.1351 85.7527 75.1351 86.25C75.1351 88.7364 74.1473 91.121 72.3892 92.8791C70.631 94.6373 68.2465 95.625 65.7601 95.625H63.6169C61.1305 95.625 58.746 94.6373 56.9878 92.8791C55.2297 91.121 54.2419 88.7364 54.2419 86.25Z" fill="#66253C"/>
<path fill-rule="evenodd" clip-rule="evenodd" d="M68.9155 95.0813C67.9027 95.4425 66.8352 95.6264 65.7599 95.625H63.6168C61.1953 95.625 58.8677 94.6881 57.1216 93.0104C55.3754 91.3328 54.3461 89.0446 54.2493 86.625C55.6818 86.0888 57.808 86.1507 59.9061 86.2125C60.5736 86.2313 61.2374 86.25 61.8749 86.25C66.0186 86.25 69.3749 89.1882 69.3749 92.8125C69.3749 93.6094 69.2118 94.3744 68.9155 95.0813Z" fill="#B03E67"/>
<path d="M56.25 84.375H75V86.25C75 86.7473 74.8025 87.2242 74.4508 87.5758C74.0992 87.9275 73.6223 88.125 73.125 88.125H58.125C57.6277 88.125 57.1508 87.9275 56.7992 87.5758C56.4475 87.2242 56.25 86.7473 56.25 86.25V84.375Z" fill="white"/>
<path d="M61.875 70.3125C61.875 68.7592 60.6158 67.5 59.0625 67.5C57.5092 67.5 56.25 68.7592 56.25 70.3125V72.1875C56.25 73.7408 57.5092 75 59.0625 75C60.6158 75 61.875 73.7408 61.875 72.1875V70.3125Z" fill="#1B0B47"/>
<path d="M80.625 70.3125C80.625 68.7592 79.3658 67.5 77.8125 67.5C76.2592 67.5 75 68.7592 75 70.3125V72.1875C75 73.7408 76.2592 75 77.8125 75C79.3658 75 80.625 73.7408 80.625 72.1875V70.3125Z" fill="#1B0B47"/>
</g>
<defs>
<clipPath id="clip0_268485_3330">
<rect width="120" height="120" rx="60" fill="white"/>
</clipPath>
</defs>
</svg>
