<svg width="120" height="120" viewBox="0 0 120 120" fill="none" xmlns="http://www.w3.org/2000/svg">
<g clip-path="url(#clip0_268485_3350)">
<path d="M120 60C120 26.8629 93.1371 0 60 0C26.8629 0 0 26.8629 0 60C0 93.1371 26.8629 120 60 120C93.1371 120 120 93.1371 120 60Z" fill="#F16063"/>
<path d="M33.75 78.75C38.9277 78.75 43.125 74.5527 43.125 69.375C43.125 64.1973 38.9277 60 33.75 60C28.5723 60 24.375 64.1973 24.375 69.375C24.375 74.5527 28.5723 78.75 33.75 78.75Z" fill="#EAC0B3"/>
<path d="M33.75 76.875H65.625V123.506C65.625 123.506 58.7944 127.5 49.6875 127.5C40.5806 127.5 33.75 120.981 33.75 120.981V76.875Z" fill="#EAC0B3"/>
<path d="M65.2706 99.585C65.2706 109.682 63.6393 108.726 53.0212 108.726C42.4031 108.726 37.5037 100.541 37.5037 90.4444C37.5037 80.3494 37.1006 71.25 45.6693 71.25C69.9 72.1425 65.2706 89.4881 65.2706 99.585Z" fill="#C99688"/>
<path d="M86.0363 67.6875C86.0363 84.4162 83.4375 104.987 62.8125 104.987C42.1876 104.987 32.6775 84.4162 32.6775 67.6875C28.125 47.8125 29.0626 24.375 60 24.375C90.9375 24.375 86.0363 50.9569 86.0363 67.6875Z" fill="#F5D0C5"/>
<path d="M71.25 76.875H69.375C68.3395 76.875 67.5 77.7145 67.5 78.75C67.5 79.7855 68.3395 80.625 69.375 80.625H71.25C72.2855 80.625 73.125 79.7855 73.125 78.75C73.125 77.7145 72.2855 76.875 71.25 76.875Z" fill="#EAC0B3"/>
<path d="M71.25 112.5H30C20.6802 112.5 13.125 120.055 13.125 129.375V138.75C13.125 148.07 20.6802 155.625 30 155.625H71.25C80.5698 155.625 88.125 148.07 88.125 138.75V129.375C88.125 120.055 80.5698 112.5 71.25 112.5Z" fill="#3633E0"/>
<path d="M31.875 108.75H67.5V114.375C67.5 114.375 58.125 116.25 49.6875 116.25C41.25 116.25 31.875 114.375 31.875 114.375V108.75Z" fill="#3633E0"/>
<path d="M31.875 108.75H67.5V112.5C67.5 112.5 61.875 115.312 49.6875 115.312C37.5 115.312 31.875 112.5 31.875 112.5V108.75Z" fill="#362ABC"/>
<path d="M30.9375 110.625C30.9375 109.63 31.3326 108.677 32.0359 107.973C32.7391 107.27 33.6929 106.875 34.6875 106.875H64.6875C65.6821 106.875 66.6359 107.27 67.3392 107.973C68.0424 108.677 68.4375 109.63 68.4375 110.625C68.4375 110.625 59.0625 112.5 49.6875 112.5C40.3125 112.5 30.9375 110.625 30.9375 110.625Z" fill="#3633E0"/>
<path fill-rule="evenodd" clip-rule="evenodd" d="M90 46.875C89.999 38.0058 86.5069 29.4934 80.2787 23.1788C74.0506 16.8643 65.5872 13.2551 56.7188 13.1319C47.8504 13.0087 39.29 16.3814 32.8889 22.5205C26.4877 28.6596 22.7604 37.0717 22.5131 45.9375H22.5V121.875H43.125V64.8694C47.7844 63.9731 55.8375 62.0006 66.015 57.8269C76.26 53.625 82.6519 49.6538 86.0175 47.2575C86.4712 51.99 86.3138 56.9325 86.1675 61.5263C86.1 63.675 86.0344 65.745 86.0344 67.6856C86.0344 68.4506 86.0194 69.2194 85.9875 69.99C86.4206 69.8531 86.8256 69.7031 87.1856 69.54C89.9981 68.2575 89.9981 66.5456 89.9981 66.5456V46.875H90ZM28.125 61.875C26.7787 62.8821 25.7292 64.2341 25.0875 65.7882C24.2913 67.7111 24.1576 69.8444 24.7076 71.8518C25.2575 73.8591 26.4598 75.6264 28.125 76.875V61.875Z" fill="#1B0B47"/>
<path d="M54.2419 86.25C54.2419 85.7527 54.4395 85.2758 54.7911 84.9242C55.1427 84.5725 55.6197 84.375 56.1169 84.375H73.2601C73.7573 84.375 74.2343 84.5725 74.5859 84.9242C74.9375 85.2758 75.1351 85.7527 75.1351 86.25C75.1351 88.7364 74.1473 91.121 72.3892 92.8791C70.631 94.6373 68.2465 95.625 65.7601 95.625H63.6169C61.1305 95.625 58.746 94.6373 56.9878 92.8791C55.2297 91.121 54.2419 88.7364 54.2419 86.25Z" fill="#66253C"/>
<path fill-rule="evenodd" clip-rule="evenodd" d="M68.9155 95.0812C67.9027 95.4424 66.8352 95.6263 65.7599 95.6249H63.6168C61.1953 95.6249 58.8677 94.688 57.1216 93.0103C55.3754 91.3327 54.3461 89.0445 54.2493 86.6249C55.6818 86.0887 57.808 86.1505 59.9061 86.2124C60.5736 86.2312 61.2374 86.2499 61.8749 86.2499C66.0186 86.2499 69.3749 89.188 69.3749 92.8124C69.3749 93.6093 69.2118 94.3743 68.9155 95.0812Z" fill="#B03E67"/>
<path d="M56.25 84.375H75V86.25C75 86.7473 74.8025 87.2242 74.4508 87.5758C74.0992 87.9275 73.6223 88.125 73.125 88.125H58.125C57.6277 88.125 57.1508 87.9275 56.7992 87.5758C56.4475 87.2242 56.25 86.7473 56.25 86.25V84.375Z" fill="white"/>
<path d="M61.875 70.3125C61.875 68.7592 60.6158 67.5 59.0625 67.5C57.5092 67.5 56.25 68.7592 56.25 70.3125V72.1875C56.25 73.7408 57.5092 75 59.0625 75C60.6158 75 61.875 73.7408 61.875 72.1875V70.3125Z" fill="#1B0B47"/>
<path d="M80.625 70.3125C80.625 68.7592 79.3658 67.5 77.8125 67.5C76.2592 67.5 75 68.7592 75 70.3125V72.1875C75 73.7408 76.2592 75 77.8125 75C79.3658 75 80.625 73.7408 80.625 72.1875V70.3125Z" fill="#1B0B47"/>
</g>
<defs>
<clipPath id="clip0_268485_3350">
<rect width="120" height="120" rx="60" fill="white"/>
</clipPath>
</defs>
</svg>
